<svg xmlns="http://www.w3.org/2000/svg" version="1.1" xmlns:xlink="http://www.w3.org/1999/xlink" xmlns:svgjs="http://svgjs.com/svgjs" width="512" height="512" x="0" y="0" viewBox="0 0 512 512" style="enable-background:new 0 0 512 512" xml:space="preserve" class=""><g><path d="m90 113a34.038 34.038 0 0 1 -34 34 6 6 0 0 0 -6 6v120a6 6 0 0 0 6 6 34.038 34.038 0 0 1 34 34 6 6 0 0 0 6 6h320a6 6 0 0 0 6-6 34.038 34.038 0 0 1 34-34 6 6 0 0 0 6-6v-120a6 6 0 0 0 -6-6 34.038 34.038 0 0 1 -34-34 6 6 0 0 0 -6-6h-320a6 6 0 0 0 -6 6zm320.39 6a46.094 46.094 0 0 0 39.61 39.61v108.78a46.094 46.094 0 0 0 -39.61 39.61h-308.78a46.094 46.094 0 0 0 -39.61-39.61v-108.78a46.094 46.094 0 0 0 39.61-39.61z" fill="#1e266d" data-original="#000000" class=""></path><path d="m77.331 213a30 30 0 1 0 30-30 30.033 30.033 0 0 0 -30 30zm30-18a18 18 0 1 1 -18 18 18.021 18.021 0 0 1 18-18z" fill="#1e266d" data-original="#000000" class=""></path><path d="m404.669 243a30 30 0 1 0 -30-30 30.033 30.033 0 0 0 30 30zm0-48a18 18 0 1 1 -18 18 18.02 18.02 0 0 1 18-18z" fill="#1e266d" data-original="#000000" class=""></path><path d="m136.26 143.3h49.321a6 6 0 0 0 0-12h-49.321a6 6 0 0 0 0 12z" fill="#1e266d" data-original="#000000" class=""></path><path d="m108.655 143.3h6.268a6 6 0 0 0 0-12h-6.268a6 6 0 0 0 0 12z" fill="#1e266d" data-original="#000000" class=""></path><path d="m496 333h-4v-242a10 10 0 0 0 -10-10h-336.077a6 6 0 0 0 0 12h334.077v240h-184.537a5.978 5.978 0 0 0 -4.463-2h-70a5.978 5.978 0 0 0 -4.463 2h-184.537v-240h63.923a6 6 0 0 0 0-12h-65.923a10 10 0 0 0 -10 10v242h-4a6 6 0 0 0 -6 6v84a6 6 0 0 0 6 6h200.537a5.978 5.978 0 0 0 4.463 2h70a5.978 5.978 0 0 0 4.463-2h200.537a6 6 0 0 0 6-6v-84a6 6 0 0 0 -6-6zm-281 84h-193v-16h193zm0-28h-193v-16h193zm0-28h-193v-16h193zm70 58h-58v-76h58zm205-2h-193v-16h193zm0-56h-47.454a6 6 0 0 0 0 12h47.454v16h-193v-16h95.546a6 6 0 1 0 0-12h-95.546v-16h193z" fill="#1e266d" data-original="#000000" class=""></path><path d="m165.024 210.9a90.658 90.658 0 0 0 5.291 32.756 6.006 6.006 0 0 0 11.287-4.11 79.107 79.107 0 1 1 28.219 37.515 6 6 0 0 0 -7.035 9.711 90.985 90.985 0 1 0 53.778-164.772c-49.425-.3-90.42 39.486-91.54 88.9z" fill="#1e266d" data-original="#000000" class=""></path><path d="m220.812 234.068a6 6 0 0 0 0 12h12.377v18.558a6 6 0 0 0 12 0v-18.558h36.779a6 6 0 0 0 0-12h-36.779v-11.782h19.169a32.83 32.83 0 1 0 0-65.66h-25.169a6 6 0 0 0 -6 6v47.66h-12.377a6 6 0 0 0 0 12h12.377v11.782zm24.377-65.442h19.169a20.83 20.83 0 1 1 0 41.66h-19.169z" fill="#1e266d" data-original="#000000" class=""></path></g></svg>