<svg xmlns="http://www.w3.org/2000/svg" version="1.1" xmlns:xlink="http://www.w3.org/1999/xlink" xmlns:svgjs="http://svgjs.com/svgjs" width="512" height="512" x="0" y="0" viewBox="0 0 512 512" style="enable-background:new 0 0 512 512" xml:space="preserve" class=""><g><g><path d="m405.964 180.75h-14.589v-45.375c0-74.646-60.729-135.375-135.375-135.375s-135.375 60.729-135.375 135.375v45.375h-14.589c-25.246 0-45.786 20.54-45.786 45.787v239.677c0 25.246 20.54 45.786 45.786 45.786h299.928c25.246 0 45.786-20.54 45.786-45.787v-239.676c0-25.247-20.54-45.787-45.786-45.787zm-255.339-45.375c0-58.104 47.271-105.375 105.375-105.375s105.375 47.271 105.375 105.375v45.375h-30v-52.416c0-37.68-30.654-68.334-68.334-68.334h-14.082c-37.68 0-68.334 30.654-68.334 68.334v52.416h-30zm60 45.375v-52.416c0-21.137 17.196-38.334 38.334-38.334h14.082c21.138 0 38.334 17.197 38.334 38.334v52.416zm211.125 285.463c0 8.705-7.082 15.787-15.786 15.787h-299.928c-8.704 0-15.786-7.082-15.786-15.787v-239.676c0-8.705 7.082-15.787 15.786-15.787h299.928c8.704 0 15.786 7.082 15.786 15.787z" fill="#1e266d" data-original="#000000" class=""></path><path d="m256 273.725c-24.882 0-45.125 20.243-45.125 45.125 0 19.624 12.596 36.354 30.125 42.552v47.823c0 8.284 6.716 15 15 15s15-6.716 15-15v-47.823c17.529-6.198 30.125-22.927 30.125-42.552 0-24.882-20.243-45.125-45.125-45.125zm0 60.25c-8.34 0-15.125-6.785-15.125-15.125s6.785-15.125 15.125-15.125 15.125 6.785 15.125 15.125-6.785 15.125-15.125 15.125z" fill="#1e266d" data-original="#000000" class=""></path></g></g></svg>